# xmcd CD database file
#
# Track frame offsets:
#	150
#	20860
#	39950
#	61060
#	78768
#	98678
#	117483
#	139195
#	157623
#	176273
#
# Disc length: 2429 seconds
#
# Revision: 2
# Processed by: cddbd v1.4PL0 Copyright (c) Steve Scherf et al.
# Submitted via: CDex 1.40Release
#
DISCID=6d097b0a
DTITLE=Pino daniele - Ferryboat
DYEAR=1985
DGENRE=Pop
TTITLE0=Ferry-boat
TTITLE1=Bona jurnata
TTITLE2=Sarà
TTITLE3='a rrobba mia
TTITLE4=Che ora so'
TTITLE5=One
TTITLE6=Amico mio
TTITLE7=Dance of baia
TTITLE8='o tiempo vola
TTITLE9=Quaccosa
EXTD=YEAR: 1985 ID3G: 13
EXTT0=
EXTT1=
EXTT2=
EXTT3=
EXTT4=
EXTT5=
EXTT6=
EXTT7=
EXTT8=
EXTT9=
PLAYORDER=
